# xmcd
#
# Track frame offsets:
#  150
#  15900
#  34543
#  59371
#  79741
#  102250
#  136015
#  158208
#  182408
#  199864
#  211596
#  234090
#  251532
#  267990
#  287339
#  306728
#  329103
#  346761
#
# Disc length: 4693 seconds
#
# Revision: 0
# Processed by: cddbd v1.5.1PL2 Copyright (c) Steve Scherf et al.
# Submitted via: Collectorz.com_Music_Collector 6.9
#
DISCID=ed125312
DTITLE=Sarah Jane Morris - After all these years cd1
DYEAR=2005
DGENRE=Cantanti pop
TTITLE0=Me and mrs. Jones (bossa version)
TTITLE1=The Jazz Renegades - Sarah Jane Morris - Do it the hard way
TTITLE2=Never gonna give you up
TTITLE3=The Communards - Sarah Jane Morris - Don't leave me this way
TTITLE4=Ever gonna make it
TTITLE5=Piece of my heart (live in Rome)
TTITLE6=Sunny
TTITLE7=I'm missing you
TTITLE8=River man
TTITLE9=Butterfly
TTITLE10=Mercy, mercy me
TTITLE11=Only to be with you
TTITLE12=Mad woman blues
TTITLE13=Move on up (live in Montreal)
TTITLE14=I don't wanna know about evil (live in Rome)
TTITLE15=The right track
TTITLE16=Cowboys junkies
TTITLE17=Don't smoke in bed
EXTD=
EXTT0=
EXTT1=
EXTT2=
EXTT3=
EXTT4=
EXTT5=
EXTT6=
EXTT7=
EXTT8=
EXTT9=
EXTT10=
EXTT11=
EXTT12=
EXTT13=
EXTT14=
EXTT15=
EXTT16=
EXTT17=
PLAYORDER=
